# This file uses centimeters as units for non-parametric coordinates.

g default
v 0.000000 0.917918 0.185807
v 0.186699 0.728008 0.219354
v -0.199686 0.778425 0.121830
v 0.222456 0.892221 0.170647
v 0.000106 0.906593 0.066161
v 0.126288 0.839755 0.027244
v -0.035389 0.733305 0.039638
v 0.000000 0.674973 0.210955
vt 0.494965 0.249486
vt 0.625000 0.000000
vt 0.336728 0.531897
vt 0.625000 0.250000
vt 0.500000 0.375000
vt 0.613485 0.379096
vt 0.492137 0.682814
vt 0.500000 0.875000
vt 0.606881 0.827471
vt 0.445198 0.763646
vt 0.625000 1.000000
vt 0.759136 0.264962
vn 0.095882 0.263804 0.959799
vn 0.095882 0.263804 0.959799
vn 0.095882 0.263804 0.959799
vn -0.408798 0.390142 -0.825029
vn -0.043074 0.968157 -0.246611
vn -0.190254 0.699501 -0.688841
vn 0.201066 0.932638 -0.299599
vn 0.179773 0.537301 -0.824008
vn -0.172337 -0.372182 -0.912020
vn -0.532281 -0.372492 0.760215
vn -0.131399 -0.785335 0.604965
vn -0.192474 -0.266187 0.944510
vn 0.203346 -0.804257 0.558409
vn 0.837570 -0.314814 -0.446507
vn 0.837570 -0.314814 -0.446507
vn 0.837570 -0.314814 -0.446507
s off
g pCube2
f 1/1/1 2/2/2 4/4/3
s 1
f 3/3/4 1/1/5 5/5/6
f 1/1/5 4/4/7 6/6/8 5/5/6
f 6/6/8 7/7/9 3/3/4 5/5/6
f 3/3/10 7/7/9 8/8/11
f 7/7/9 6/9/8 8/8/11
f 3/3/10 8/8/11 1/10/12
f 8/8/11 6/9/8 2/11/13 1/10/12
s off
f 2/2/14 6/12/15 4/4/16
